<?xml version="1.0" encoding="utf-8"?>
<!-- Generator: Adobe Illustrator 16.0.0, SVG Export Plug-In . SVG Version: 6.00 Build 0)  -->
<!DOCTYPE svg PUBLIC "-//W3C//DTD SVG 1.1//EN" "http://www.w3.org/Graphics/SVG/1.1/DTD/svg11.dtd">
<svg version="1.1" id="Capa_1" xmlns="http://www.w3.org/2000/svg" xmlns:xlink="http://www.w3.org/1999/xlink" x="0px" y="0px"
	 width="687.069px" height="591.059px" viewBox="0 0 687.069 591.059" enable-background="new 0 0 687.069 591.059"
	 xml:space="preserve">
<g>
	<path fill-rule="evenodd" clip-rule="evenodd" fill="#ffffff" d="M150.085,279.094c4.104-43.761,16.787-84.212,45.771-118.341
		c9.564-11.261,20.766-20.668,33.465-28.168c3.112-1.838,3.419-3.561,2.551-6.665c-2.667-9.541-3.916-19.3-1.895-29.097
		c3.131-15.177,14.26-25.138,29.664-26.485c4.57-0.399,7.92-1.927,11.288-5.085c15.471-14.511,35.691-13.965,52.86,1.387
		c2.586,2.311,4.287,2.271,7.27,1.097c26.999-10.638,55.031-15.713,83.998-13.18c43.222,3.779,76.36,24.97,100.758,60.412
		c6.037,8.771,11.255,18.023,15.796,27.659c0.745,1.581,1.259,3.106,3.48,3.778c27.019,8.165,40.429,29.746,40.981,58.754
		c0.055,2.829,0.089,5.688-0.247,8.486c-0.281,2.347,0.469,3.029,2.66,2.662c2.945-0.492,5.41,0.327,6.513,3.264
		c1.069,2.847-0.217,5.363-2.3,7.15c-3.397,2.916-6.849,5.899-10.705,8.108c-2.958,1.695-2.991,2.941-1.537,5.69
		c9.373,17.727,15.841,36.417,18.91,56.318c4.995,32.389-0.247,63.206-13.606,92.836c-6.855,15.205-15.642,29.26-26.232,42.159
		c-1.639,1.996-3.016,4.325-6.359,5.875c5.662-13.632,10.584-26.679,14.46-40.095c7.907-27.369,12.562-55.117,9.58-83.712
		c-2.438-23.382-9.448-45.084-23.917-64.014c-2.988-3.91-6.141-6.37-11.582-5.998c-4.914,0.336-9.935-0.682-14.714-2.247
		c-2.861-0.937-5.6-2.161-7.71-4.399c-1.262-1.34-2.758-3.006-2.067-4.803c0.908-2.365,2.888-0.364,4.265-0.203
		c18.266,2.144,36.194,1.686,54.08-6.589c-8.557-3.573-8.316-10.532-8.41-17.835c-0.25-19.439-6.367-36.021-24.987-45.341
		c-8.333-4.171-17.307-6.698-26.507-8.306c-1.311-0.229-2.666-0.354-3.903-0.796c-1.481-0.531-4.104,0.693-4.33-1.245
		c-0.259-2.227,2.467-2.864,4.19-3.604c5.834-2.504,12.126-2.935,18.871-3.35c-7.244-14.812-16.744-27.298-28.361-38.163
		c-25.815-24.144-56.807-35.515-91.807-36.857c-20.787-0.798-41.13,2.193-61.252,7.096c-1.238,0.302-2.43,0.797-3.692,1.218
		c5.362,7.619,7.557,15.38,6.302,22.656c-6.655-6.991-13.26-13.731-21.052-19.141c-6.444-4.473-13.174-8.248-20.956-9.996
		c-11.858-2.663-21.468,1.064-28.692,10.416c-15.217,19.7-17.059,41.55-9.392,64.641c2.596,7.816,6.222,15.223,10.318,23.204
		c-6.831-1.679-12.306-4.519-16.831-8.55c-3.37-3.001-5.821-2.198-9.158-0.496c-27.718,14.138-48.966,35.143-65.858,61.008
		c-12.237,18.738-22.669,38.281-29.04,59.833C148.648,281.708,150.033,280.192,150.085,279.094z"/>
	<path fill-rule="evenodd" clip-rule="evenodd" fill="#ffffff" d="M508.643,270.439c19.793,11.709,32.119,28.804,36.5,51.413
		c4.467,23.05-2.972,42.865-18.14,59.719c-21.89,24.322-49.349,38.749-81.83,43.68c-21.225,3.223-42.076,3.047-62.396-4.775
		c-11.16-4.296-21.042-10.568-29.366-19.198c-1.304-1.352-2.224-2.376-4.593-1.528c-23.539,8.423-46.6,5.838-68.72-4.62
		c-38.72-18.305-65.852-47.237-78.125-88.847c-14.28-48.413,18.687-85.473,60.219-93.021c2.119-0.385,4.256-0.666,6.919-1.078
		c-1.575,2.714-3.908,3.962-5.765,5.666c-21.63,19.847-34.374,44.233-36.04,73.648c-1.35,23.841,7.818,43.795,25.369,59.853
		c16.522,15.116,34.726,27.098,57.293,31.408c13.749,2.626,26.895,1.108,39.371-4.684c4.905-2.277,7.255-2.148,10.802,2.345
		c11.379,14.411,27.328,22.068,44.92,24.398c39.894,5.285,75.025-5.691,103.877-34.433c16.309-16.245,19.711-35.78,13.96-57.516
		C519.087,298.466,513.91,284.547,508.643,270.439z"/>
	<path fill-rule="evenodd" clip-rule="evenodd" fill="#ffffff" d="M201.809,542.202c-26.122,0.002-46.627-15.605-55.265-42.062
		c-11.809-36.169,3.204-88.051,32.622-112.247c10.628-8.742,22.762-13.436,36.759-12.835c15.077,0.647,26.938,11.406,28.066,26.493
		c0.875,11.71-1.022,23.213-4.939,34.313c-1.44,4.083-4.178,6.768-8.833,6.768c-4.664,0-6.416-2.117-5.05-6.619
		c2.156-7.107,5.69-13.761,6.629-21.287c0.54-4.326,0.889-8.646,0.391-12.938c-1.366-11.789-12.138-17.557-24.33-13.136
		c-6.111,2.216-11.253,6.04-15.055,11.149c-22.158,29.783-31.27,63.098-23.079,99.532c5.959,26.508,25.03,33.815,49.354,29.443
		c17.717-3.185,31.325-13.056,40.833-28.45c1.395-2.257,2.998-4.396,4.634-6.489c1.25-1.598,3.084-2.188,4.918-1.35
		c1.967,0.897,2.162,2.842,1.752,4.741c-0.24,1.113-0.696,2.209-1.218,3.229C257.717,524.473,228.741,542.2,201.809,542.202z"/>
	<path fill-rule="evenodd" clip-rule="evenodd" fill="#ffffff" d="M74.207,350.013c8.864,0.674,17.015,4.103,25.432,6.485
		c15.274,4.324,22.847,2.021,32.677-10.421c2.06-2.606,3.97-5.329,5.985-7.971c1.177-1.543,2.612-2.746,4.672-1.751
		c2.327,1.124,1.651,3.238,0.856,4.754c-5.177,9.872-11.576,18.68-22.221,23.343c-7.79,3.412-15.675,1.402-23.537,0.171
		c-9.477-1.483-18.808-4.39-28.611-2.602c-5.126,0.936-9.741,3.168-14.474,5.128c-4.599,1.903-8.104,0.015-10.092-5.499
		c-1.448-4.015-0.005-7.252,4.756-8.072C57,352.312,59.7,347.463,61.37,341.107c3.903-14.854,4.722-30.163,6.859-45.276
		c2-14.143,4.287-28.216,10.058-41.435c3.062-7.012,7.51-12.905,14.271-16.776c7.11-4.07,13.888-2.615,18.95,3.872
		c4.623,5.924,5.859,12.9,6.348,20.09c0.139,2.043-0.313,4.228-2.917,4.473c-2.564,0.241-3.238-1.696-3.728-3.791
		c-0.98-4.19-1.376-8.5-2.893-12.589c-1.08-2.91-2.772-4.971-5.887-5.385c-3.538-0.471-5.65,1.917-7.099,4.556
		c-4.27,7.777-6.308,16.342-8.148,24.934c-4.734,22.097-6.976,44.606-10.978,66.825C75.652,343.68,74.911,346.722,74.207,350.013z"
		/>
	<path fill-rule="evenodd" clip-rule="evenodd" fill="#ffffff" d="M354.437,461.604c-6.895,7.092-13.515,13.622-21.019,19.236
		c-1.46,1.092-2.972,2.146-4.568,3.018c-3.229,1.766-6.571,3.601-10.291,1.404c-3.916-2.313-3.997-6.337-3.837-10.16
		c0.424-10.11,3.883-19.479,7.59-28.736c1.395-3.479,4.037-5.356,7.943-3.958c3.309,1.186,4.553,4.938,2.638,8.808
		c-3.24,6.551-6.159,13.196-7.952,20.302c-0.161,0.643-0.582,1.252-0.612,1.889c-0.091,1.935-1.388,4.457,0.308,5.659
		c1.919,1.36,3.635-0.945,5.137-2.071c8.885-6.664,15.566-15.443,22.654-23.832c1.719-2.033,3.426-4.104,5.365-5.914
		c2.981-2.779,5.949-1.836,7.058,2.109c0.222,0.79,0.298,1.646,0.297,2.471c-0.049,22.354-1.365,44.537-8.946,65.868
		c-2.524,7.104-6.009,13.708-10.907,19.437c-4.866,5.689-10.54,10.177-18.61,10.083c-5.253-0.062-8.785-2.563-10.407-7.608
		c-2.233-6.951-0.759-13.474,2.709-19.642c6.802-12.095,17.131-20.725,28.589-27.985c4.25-2.693,6.18-5.551,6.047-10.627
		C353.447,474.782,354.125,468.188,354.437,461.604z"/>
	<path fill-rule="evenodd" clip-rule="evenodd" fill="#ffffff" d="M558.081,485.283c-3.471,4.831-6.625,8.655-10.435,11.822
		c-3.075,2.556-6.341,5.392-10.716,3.55c-4.26-1.793-4.936-6.032-5.434-10.003c-0.336-2.688-0.063-5.453-0.063-8.838
		c-4.158,4.46-7.519,8.989-11.86,12.539c-1.672,1.366-3.327,2.768-5.102,3.99c-11.556,7.961-20.344,4.208-22.041-9.705
		c-1.143-9.354-0.056-18.597,3.695-27.359c1.453-3.396,3.199-6.589,7.436-7.316c4.617-0.793,6.502,0.996,5.186,5.405
		c-0.896,3.005-2.299,5.854-3.304,8.831c-2.414,7.16-3.782,14.498-2.546,22.05c0.918,5.601,3.925,6.925,8.738,3.869
		c5.695-3.615,9.818-8.866,14.163-13.932c2.63-3.066,3.371-8.734,9.49-7.866c0.477,0.067,1.28-1.755,1.838-2.751
		c3.955-7.073,9.013-13.133,15.891-17.567c3.153-2.033,6.564-3.174,10.313-3.166c2.388,0.005,4.258,1.077,4.926,3.438
		c0.721,2.554-1.645,2.949-3.135,3.75c-8.691,4.667-15.841,10.923-20.645,19.661c-2.359,4.292-3.452,8.955-4.021,13.766
		c-0.156,1.318-0.377,2.84,0.948,3.642c1.583,0.957,2.836-0.194,3.948-1.179c5.575-4.936,9.139-11.368,12.929-17.612
		c1.892-3.116,3.517-6.393,5.298-9.577c1.396-2.497,3.361-4.717,6.346-3.155c2.846,1.489,1.201,4.099,0.248,6.117
		c-3.881,8.216-4.692,16.905-4.069,25.798c0.446,6.373,3.489,7.882,8.865,4.326c6.321-4.181,11.322-9.76,15.833-15.79
		c1.309-1.748,2.697-4.138,5.079-2.223c1.924,1.547,0.528,3.67-0.729,5.303c-5.293,6.873-10.709,13.646-18.404,18.049
		c-9.326,5.336-15.793,2.268-17.514-8.28C558.78,492.087,558.553,489.268,558.081,485.283z"/>
	<path fill-rule="evenodd" clip-rule="evenodd" fill="#ffffff" d="M307.313,238.375c10.165-1.155,18.42-6.321,26.028-12.655
		c17.035-14.183,28.67-32.603,40.021-51.258c8.618-14.164,14.613-29.823,24.804-43.091c6.398-8.33,12.729-16.715,21.418-22.854
		c9.828-6.941,17.044-4.592,21.122,6.783c2.151,5.999,3.046,12.288,3.316,18.587c0.7,16.327-0.038,32.577-2.27,48.817
		c-2.481,18.058-2.627,36.26,0.708,54.233c2.797,15.08,7.969,29.142,21.957,38.053c-7.332-1.404-12.566-5.771-16.667-11.563
		c-8.301-11.726-10.647-25.327-11.413-39.205c-0.882-15.979,0.566-31.842,2.388-47.767c1.771-15.48,2.39-31.248-1.431-46.66
		c-3.555-14.343-11.887-17.021-22.975-7.373c-13.908,12.103-23.361,27.453-31.691,43.703c-9.643,18.81-20.562,36.882-34.954,52.531
		c-8.728,9.489-18.308,17.934-31.487,20.884c-2.652,0.594-5.264,0.634-7.924,0.525C307.651,239.667,306.706,239.458,307.313,238.375
		z"/>
	<path fill-rule="evenodd" clip-rule="evenodd" fill="#ffffff" d="M273.916,469.118c-5.728,7.03-11.146,13.342-18.658,17.369
		c-9.54,5.115-16.484,1.216-17.002-9.562c-0.516-10.732,0.88-21.218,4.373-31.394c1.388-4.043,3.856-6.956,8.444-7.354
		c4.331-0.376,5.555,0.982,4.241,5.179c-2.772,8.849-6.153,17.524-7.606,26.738c-0.464,2.942-0.642,5.94-0.794,8.921
		c-0.207,4.036,2.05,4.53,5.1,3.112c4.158-1.933,7.355-5.147,10.239-8.604c7.25-8.689,13.936-17.769,18.738-28.104
		c0.621-1.335,1.432-2.645,2.412-3.734c1.641-1.823,4.018-2.186,5.909-0.993c1.802,1.137,1.004,3.27,0.302,4.993
		c-4.03,9.882-7.102,20.015-7.497,30.759c-0.124,3.372-1.271,7.807,2.364,9.548c3.985,1.907,6.522-2.166,9.134-4.518
		c5.713-5.146,10.295-11.299,14.968-17.364c0.951-1.234,2.016-3.152,3.957-2.077c2.225,1.232,1.182,3.297,0.281,4.798
		c-5.991,9.993-13.541,18.584-23.876,24.213c-7.123,3.879-11.567,1.666-13.96-6.049C273.43,479.987,274.798,474.821,273.916,469.118
		z"/>
	<path fill-rule="evenodd" clip-rule="evenodd" fill="#ffffff" d="M175.03,345.115c-4.208,5.734-7.513,10.947-12.516,14.687
		c-6.284,4.695-11.311,3.054-13.664-4.412c-0.868-2.755-1.116-5.616-0.789-8.389c1.751-14.842,8.882-26.573,21.032-35.224
		c2.617-1.863,5.669-2.689,8.914-2.759c2.443-0.053,4.31,0.977,5.041,3.245c0.793,2.465-1.575,2.94-3.039,3.85
		c-11.134,6.913-19.607,15.863-22.339,29.187c-0.332,1.617-0.515,3.302-0.468,4.946c0.04,1.388-0.847,3.278,0.859,4.072
		c2.039,0.948,3.407-0.676,4.646-2.018c6.167-6.681,9.923-14.855,14.046-22.8c0.838-1.614,1.661-3.242,2.383-4.911
		c1.14-2.636,3.101-4.218,5.869-3.222c3.476,1.25,1.437,4.099,0.755,5.909c-3.301,8.76-4.613,17.675-2.771,26.898
		c1.192,5.967,3.496,6.778,8.651,3.279c6.319-4.289,10.857-10.249,15.176-16.392c1.235-1.757,2.289-4.355,4.89-2.726
		c2.658,1.666,0.762,3.802-0.422,5.538c-4.417,6.476-9.042,12.791-15.495,17.452c-10.695,7.725-18.111,4.703-20.311-8.319
		C175.097,350.74,175.201,348.39,175.03,345.115z"/>
	<path fill-rule="evenodd" clip-rule="evenodd" fill="#ffffff" d="M445.334,459.393c-2.903,6.218-5.365,12.219-9.219,17.462
		c-1.275,1.735-2.571,3.5-4.118,4.979c-1.566,1.498-3.363,4.337-5.714,2.34c-2.612-2.22,0.556-4.082,1.687-5.773
		c3.865-5.78,8.42-11.108,10.58-17.927c0.797-2.514,0.842-4.621-0.258-7.135c-3.107-7.11-1.715-13.988,2.121-20.425
		c1.168-1.958,2.788-4.125,5.536-3.427c2.419,0.614,2.822,3.008,3.267,5.133c0.586,2.805,0.672,5.65,0.066,8.436
		c-0.791,3.648,0.684,6.068,3.702,7.863c0.997,0.593,1.944,1.275,2.893,1.947c8.208,5.808,9.799,9.923,7.21,19.595
		c-1.635,6.106-3.226,12.213-3.471,18.555c-0.191,4.94,1.728,6.202,6.027,3.772c6.63-3.745,11.475-9.535,16.437-15.146
		c0.769-0.869,1.354-1.903,2.141-2.755c1.082-1.171,2.185-3.056,4.052-1.664c1.844,1.375,1.111,3.351-0.001,4.858
		c-6.27,8.499-13.327,16.245-22.902,21.079c-6.303,3.183-11.038,0.875-13.108-5.883c-1.749-5.711-1.049-11.535-0.633-17.332
		c0.167-2.318,0.363-4.65,0.789-6.931C453.515,465.132,451.017,461.464,445.334,459.393z"/>
	<path fill-rule="evenodd" clip-rule="evenodd" fill="#ffffff" d="M373.249,475.82c1.354-11.282,5.941-23.091,15.961-32.366
		c0.849-0.786,1.777-1.552,2.799-2.075c4.133-2.122,8.514-3.742,12.537-0.199c4.072,3.585,3.199,8.175,1.072,12.374
		c-4.08,8.051-9.97,14.589-18.096,18.657c-5.246,2.628-3.459,7.038-3.229,10.846c0.227,3.744,3.014,5.764,6.746,6.146
		c7.316,0.749,13.254-2.372,18.621-6.879c3.852-3.234,6.897-7.186,9.772-11.294c1.095-1.564,2.444-3.823,4.746-2.202
		c2.302,1.622,0.583,3.646-0.462,5.229c-7.34,11.103-16.834,19.232-30.463,21.298C380.526,497.282,373.221,490.816,373.249,475.82z"
		/>
	<path fill-rule="evenodd" clip-rule="evenodd" fill="#ffffff" d="M470.35,236.804c0.146,5.096-1.197,11.536-4.741,17.356
		c-1.852,3.04-4.299,5.739-8.265,5.452c-3.99-0.29-6.063-3.279-7.296-6.656c-4.104-11.229-3.223-22.227,2.788-32.49
		c4.317-7.37,10.915-6.9,14.884,0.633C470.036,225.499,470.39,230.281,470.35,236.804z"/>
	<path fill-rule="evenodd" clip-rule="evenodd" fill="#ffffff" d="M318.286,214.893c1.51-11.151,5.815-20.8,14.836-27.825
		c2.567-1.999,5.588-3.756,9.166-2.09c3.689,1.719,4.797,5.15,4.699,8.656c-0.348,12.307-5.492,22.4-15.241,29.914
		c-2.479,1.911-5.729,2.983-8.915,1.267C318.877,222.684,318.794,218.68,318.286,214.893z"/>
	<path fill-rule="evenodd" clip-rule="evenodd" fill="#382809" d="M358.942,352.879c0.619,12.879,7.239,17.457,19.908,15.063
		c5.493-1.038,10.739-2.94,16.162-4.406c-6.176,5.902-12.93,10.913-21.193,13.274c-8.481,2.425-13.102-0.684-17.861-11.357
		c-0.277,0.087-0.607,0.107-0.831,0.271c-11.55,8.459-19.971,6.657-26.718-5.838c-2.258-4.183-3.951-8.609-4.493-13.59
		c4.832,5.235,8.488,11.746,15.513,14.418C347.625,363.833,353.403,359.671,358.942,352.879z"/>
	<path fill-rule="evenodd" clip-rule="evenodd" fill="#39290B" d="M417.354,335.146c21.887,2.114,43.268,5.938,61.584,19.319
		c6.503,4.751,10.986,12.504,12.982,21.309c-11.519-17.989-29.298-26.218-48.33-32.565c-9.896-3.301-20.109-5.271-30.334-7.194
		C414.188,333.678,415.862,334.842,417.354,335.146z"/>
	<path fill-rule="evenodd" clip-rule="evenodd" fill="#3A2A0B" d="M322.122,314.61c-15.227-6.145-30.822-10.896-47.203-12.821
		c-10.069-1.184-20.108-2.324-30.152,0.233c-1.24,0.315-2.629,0.043-4.439,0.043c10.618-5.699,21.673-7.05,32.85-5.583
		c17.386,2.28,33.497,8.771,49.015,16.766C322.628,313.725,322.604,314.179,322.122,314.61z"/>
	<path fill-rule="evenodd" clip-rule="evenodd" fill="#3A2A0B" d="M403.604,344.63c18.467,0.709,36.768,2.171,48.995,18.931
		c6.407,8.782,7.314,18.997,6.311,29.487c-0.093,0.973-0.4,1.981-1.963,2.09c1.092-11.033-0.991-21.102-8.617-29.607
		c-7.44-8.299-16.93-13.01-27.282-16.471C415.31,347.142,409.323,346.359,403.604,344.63z"/>
	<path fill-rule="evenodd" clip-rule="evenodd" fill="#3A2A0B" d="M253.162,339.154c6.565-19.104,27.023-29.165,47.709-23.288
		c8.313,2.361,16.502,5.144,23.553,10.504c-6.87-2.096-13.552-4.698-20.665-5.849c-6.58-1.065-13.116-1.753-19.815-0.955
		c-13.623,1.623-23.307,8.763-29.859,20.553C253.216,340.333,252.705,340.206,253.162,339.154z"/>
	<path fill-rule="evenodd" clip-rule="evenodd" fill="#3C2C0E" d="M355.937,331.464c-5.001-7.825-16.35-10.187-14.408-21.652
		C350.722,313.386,355.723,320.594,355.937,331.464z"/>
	<path fill-rule="evenodd" clip-rule="evenodd" fill="#3B2B0D" d="M372.751,333.744c4.067-8.395,10.596-11.798,18.965-10.47
		c0.949,0.15,2.244,0.015,2.398,1.225c0.08,0.629-0.632,1.477-1.172,2.05c-3.109,3.294-7.109,4.885-11.479,5.414
		C378.536,332.317,375.548,332.177,372.751,333.744z"/>
	<path fill-rule="evenodd" clip-rule="evenodd" fill="#3A2A0C" d="M508.427,445.604c-3.246-0.096-4.762-2.075-5.021-5.013
		c-0.308-3.498,3.271-7.384,6.553-7.387c3.329-0.003,4.71,2.147,5.032,4.998C515.382,441.66,511.766,445.559,508.427,445.604z"/>
	<path fill-rule="evenodd" clip-rule="evenodd" fill="#433417" d="M417.354,335.146c-1.361,0.312-2.929-0.351-4.098,0.868
		c-1.699,0.018-3.477,0.344-5.826-1.591C411.465,334.332,414.45,333.728,417.354,335.146z"/>
	<path fill-rule="evenodd" clip-rule="evenodd" fill="#877E6B" d="M150.085,279.094c0.31,0.982,0.62,1.965,0.93,2.948
		c-0.027,1.327-0.421,2.477-1.62,3.416C149.068,283.169,148.922,281.064,150.085,279.094z"/>
	<path fill-rule="evenodd" clip-rule="evenodd" fill="#7E7460" d="M307.313,238.375c0.317,0.563,0.634,1.127,0.95,1.691
		c-2.034,0.509-3.688-0.25-5.475-1.691C304.495,238.375,305.904,238.375,307.313,238.375z"/>
	<path fill-rule="evenodd" clip-rule="evenodd" fill="#BCB7AC" d="M253.15,343.156c-0.259,1.282-0.518,2.565-0.816,4.046
		c-1.935-1.623-0.681-2.811-0.088-4.027C252.538,342.762,252.839,342.736,253.15,343.156z"/>
	<path fill-rule="evenodd" clip-rule="evenodd" fill="#7C725E" d="M253.15,343.156l-0.451,0.097l-0.454-0.078
		c-0.136-1.44-0.438-2.92,0.917-4.021c0.308,0.321,0.615,0.644,0.922,0.965C253.773,341.131,253.461,342.143,253.15,343.156z"/>
	<path fill-rule="evenodd" clip-rule="evenodd" fill="#4E3F21" d="M322.122,314.61c0.023-0.454,0.047-0.908,0.07-1.362
		c1.174,0.404,2.521,0.526,3.321,2.181C324.027,316.116,323.089,315.281,322.122,314.61z"/>
	<path fill-rule="evenodd" clip-rule="evenodd" fill="#FEFEFE" d="M352.151,494.448c-2.118,11.935-5.104,22.581-10.102,32.578
		c-2.638,5.275-6.197,9.9-11.279,13.05c-4.662,2.888-8.145,1.328-9.033-4.062c-0.967-5.869,0.965-11.163,3.976-16.102
		C332.104,509.43,341.638,502.215,352.151,494.448z"/>
	<path fill-rule="evenodd" clip-rule="evenodd" fill="#FCFCFB" d="M385.284,467.253c2.553-5.331,4.023-10.613,7.054-15.152
		c1.01-1.512,2.006-3.055,3.2-4.415c1.118-1.273,2.635-2.381,4.344-1.246c1.381,0.918,1.215,2.48,0.883,4.052
		C399.502,456.446,391.944,464.896,385.284,467.253z"/>
	<path fill-rule="evenodd" clip-rule="evenodd" fill="#F4F4F3" d="M460.337,230.424c-2.144-0.352-5.244,0.372-5.047-3.526
		c0.078-1.57,0.867-2.946,2.787-2.752c3.164,0.319,4.565,2.696,4.965,5.346C463.341,231.473,461.465,230.318,460.337,230.424z"/>
	<path fill-rule="evenodd" clip-rule="evenodd" fill="#EEEDEC" d="M338.19,193.796c1.858,1.607,2.183,3.693,0.026,4.797
		c-2.14,1.094-5.198,1.811-6.838-0.811c-1.725-2.756,1.937-2.544,2.848-3.922C335.524,192.429,336.847,192.45,338.19,193.796z"/>
	<path fill-rule="evenodd" clip-rule="evenodd" fill="#2B1600" d="M338.19,193.796c-1.331-0.577-2.649-0.368-3.964,0.064
		C335.507,191.325,336.828,191.328,338.19,193.796z"/>
</g>
<rect x="1059.21" y="67.114" fill="#9C021D" width="150" height="75"/>
<rect x="1073.71" y="156.302" fill="#ffffff" width="150" height="67"/>
<g>
	<path fill="#9C021D" d="M389.428,527.208l-2.773,2.644c-1.886-1.994-4.008-2.99-6.366-2.99c-1.99,0-3.666,0.68-5.029,2.041
		c-1.363,1.36-2.044,3.037-2.044,5.031c0,1.39,0.302,2.622,0.905,3.7c0.604,1.077,1.457,1.923,2.561,2.537s2.33,0.921,3.679,0.921
		c1.15,0,2.202-0.215,3.154-0.645c0.953-0.431,2-1.212,3.141-2.346l2.688,2.805c-1.539,1.502-2.992,2.543-4.361,3.124
		c-1.369,0.58-2.931,0.87-4.687,0.87c-3.238,0-5.889-1.026-7.951-3.079c-2.063-2.054-3.094-4.685-3.094-7.895
		c0-2.077,0.469-3.923,1.408-5.536c0.939-1.615,2.285-2.913,4.036-3.895s3.637-1.473,5.657-1.473c1.718,0,3.372,0.363,4.963,1.089
		S388.276,525.871,389.428,527.208z"/>
	<path fill="#9C021D" d="M399.62,528.575c1.454,0,2.82,0.363,4.1,1.09c1.279,0.728,2.277,1.714,2.995,2.96s1.076,2.591,1.076,4.036
		c0,1.453-0.361,2.813-1.083,4.078c-0.723,1.265-1.707,2.253-2.953,2.966s-2.619,1.069-4.12,1.069c-2.209,0-4.095-0.786-5.657-2.357
		c-1.563-1.572-2.344-3.481-2.344-5.729c0-2.406,0.883-4.413,2.648-6.018C395.83,529.273,397.61,528.575,399.62,528.575z
		 M399.685,532.213c-1.201,0-2.201,0.418-3,1.254c-0.8,0.835-1.199,1.904-1.199,3.207c0,1.341,0.396,2.426,1.185,3.257
		c0.79,0.831,1.79,1.246,3,1.246c1.211,0,2.218-0.42,3.021-1.261c0.804-0.84,1.206-1.921,1.206-3.242s-0.396-2.396-1.185-3.222
		C401.923,532.626,400.914,532.213,399.685,532.213z"/>
	<path fill="#9C021D" d="M410.834,528.971h3.865v1.77c0.661-0.727,1.396-1.27,2.204-1.628s1.688-0.538,2.643-0.538
		c0.964,0,1.833,0.236,2.607,0.708s1.398,1.161,1.87,2.067c0.614-0.906,1.367-1.596,2.261-2.067
		c0.893-0.472,1.868-0.708,2.926-0.708c1.096,0,2.06,0.255,2.891,0.765s1.429,1.175,1.793,1.997c0.363,0.82,0.546,2.156,0.546,4.007
		v9.034h-3.895v-7.816c0-1.746-0.217-2.929-0.651-3.547s-1.086-0.928-1.954-0.928c-0.661,0-1.253,0.188-1.777,0.566
		c-0.523,0.378-0.913,0.899-1.168,1.564c-0.255,0.666-0.383,1.734-0.383,3.207v6.953h-3.894v-7.463c0-1.378-0.102-2.376-0.305-2.994
		c-0.204-0.618-0.509-1.079-0.916-1.381s-0.898-0.453-1.477-0.453c-0.643,0-1.228,0.191-1.753,0.573
		c-0.524,0.383-0.917,0.918-1.178,1.607c-0.26,0.689-0.391,1.774-0.391,3.257v6.854h-3.865V528.971z"/>
	<path fill="#9C021D" d="M439.541,522.627c0.678,0,1.259,0.245,1.744,0.736c0.484,0.491,0.728,1.086,0.728,1.784
		c0,0.689-0.24,1.276-0.721,1.763s-1.055,0.729-1.723,0.729c-0.687,0-1.273-0.248-1.758-0.743c-0.484-0.496-0.727-1.098-0.727-1.806
		c0-0.68,0.239-1.261,0.72-1.741C438.284,522.868,438.863,522.627,439.541,522.627z M437.608,528.971h3.865v15.406h-3.865V528.971z"
		/>
	<path fill="#9C021D" d="M456.27,523.024h3.866v21.354h-3.866v-1.629c-0.754,0.718-1.511,1.234-2.27,1.551s-1.582,0.475-2.468,0.475
		c-1.99,0-3.711-0.771-5.163-2.315c-1.452-1.543-2.178-3.462-2.178-5.756c0-2.379,0.702-4.328,2.107-5.849
		c1.405-1.52,3.111-2.279,5.12-2.279c0.924,0,1.791,0.175,2.602,0.523c0.812,0.35,1.561,0.874,2.249,1.572V523.024z
		 M452.206,532.143c-1.194,0-2.188,0.423-2.978,1.268s-1.186,1.928-1.186,3.25c0,1.33,0.402,2.426,1.206,3.285
		c0.805,0.858,1.795,1.288,2.972,1.288c1.213,0,2.22-0.423,3.02-1.268s1.199-1.951,1.199-3.32c0-1.341-0.399-2.426-1.199-3.257
		S453.43,532.143,452.206,532.143z"/>
	<path fill="#9C021D" d="M475.327,528.971h3.866v15.406h-3.866v-1.629c-0.754,0.718-1.511,1.234-2.27,1.551
		s-1.582,0.475-2.468,0.475c-1.99,0-3.711-0.771-5.163-2.315c-1.452-1.543-2.178-3.462-2.178-5.756c0-2.379,0.702-4.328,2.107-5.849
		c1.405-1.52,3.111-2.279,5.12-2.279c0.924,0,1.791,0.175,2.602,0.523c0.812,0.35,1.561,0.874,2.249,1.572V528.971z
		 M471.264,532.143c-1.194,0-2.188,0.423-2.978,1.268s-1.186,1.928-1.186,3.25c0,1.33,0.402,2.426,1.206,3.285
		c0.805,0.858,1.795,1.288,2.972,1.288c1.213,0,2.22-0.423,3.02-1.268s1.199-1.951,1.199-3.32c0-1.341-0.399-2.426-1.199-3.257
		S472.487,532.143,471.264,532.143z"/>
	<path fill="#9C021D" d="M489.413,523.547h11.512v3.908h-3.795v16.922h-4.021v-16.922h-3.695V523.547z"/>
	<path fill="#9C021D" d="M505.299,520.602h4.573l-5.183,5.551h-2.775L505.299,520.602z M502.707,528.971h3.865v15.406h-3.865
		V528.971z"/>
	<path fill="#9C021D" d="M513.834,528.971v1.699c0.699-0.698,1.454-1.223,2.266-1.572c0.813-0.349,1.681-0.523,2.605-0.523
		c2.012,0,3.72,0.76,5.127,2.279c1.406,1.521,2.109,3.47,2.109,5.849c0,2.294-0.727,4.213-2.181,5.756
		c-1.454,1.544-3.177,2.315-5.169,2.315c-0.887,0-1.713-0.158-2.478-0.475s-1.524-0.833-2.28-1.551v7.265h-3.837v-21.042H513.834z
		 M517.898,532.143c-1.218,0-2.228,0.415-3.03,1.246s-1.204,1.916-1.204,3.257c0,1.369,0.401,2.476,1.204,3.32
		s1.813,1.268,3.03,1.268c1.18,0,2.174-0.43,2.98-1.288c0.808-0.859,1.211-1.955,1.211-3.285c0-1.322-0.396-2.405-1.189-3.25
		S519.106,532.143,517.898,532.143z"/>
	<path fill="#9C021D" d="M530.563,522.627c0.678,0,1.259,0.245,1.744,0.736c0.484,0.491,0.728,1.086,0.728,1.784
		c0,0.689-0.24,1.276-0.721,1.763s-1.055,0.729-1.723,0.729c-0.687,0-1.273-0.248-1.758-0.743c-0.484-0.496-0.727-1.098-0.727-1.806
		c0-0.68,0.239-1.261,0.72-1.741C529.306,522.868,529.885,522.627,530.563,522.627z M528.63,528.971h3.865v15.406h-3.865V528.971z"
		/>
	<path fill="#9C021D" d="M551.002,532.086l-3.219,1.77c-0.604-0.632-1.202-1.071-1.793-1.316s-1.283-0.368-2.077-0.368
		c-1.446,0-2.616,0.432-3.509,1.294c-0.894,0.862-1.34,1.968-1.34,3.315c0,1.31,0.43,2.38,1.29,3.209s1.989,1.244,3.389,1.244
		c1.729,0,3.076-0.59,4.04-1.771l3.049,2.088c-1.652,2.148-3.984,3.223-6.996,3.223c-2.709,0-4.83-0.803-6.364-2.407
		s-2.302-3.483-2.302-5.636c0-1.491,0.373-2.865,1.119-4.121c0.746-1.255,1.786-2.241,3.122-2.959s2.83-1.076,4.481-1.076
		c1.529,0,2.903,0.305,4.121,0.913C549.231,530.097,550.228,530.963,551.002,532.086z"/>
	<path fill="#9C021D" d="M565.768,528.971h3.866v15.406h-3.866v-1.629c-0.754,0.718-1.511,1.234-2.27,1.551
		s-1.582,0.475-2.468,0.475c-1.99,0-3.711-0.771-5.163-2.315c-1.452-1.543-2.178-3.462-2.178-5.756c0-2.379,0.702-4.328,2.107-5.849
		c1.405-1.52,3.111-2.279,5.12-2.279c0.924,0,1.791,0.175,2.602,0.523c0.812,0.35,1.561,0.874,2.249,1.572V528.971z
		 M561.704,532.143c-1.194,0-2.188,0.423-2.978,1.268s-1.186,1.928-1.186,3.25c0,1.33,0.402,2.426,1.206,3.285
		c0.805,0.858,1.795,1.288,2.972,1.288c1.213,0,2.22-0.423,3.02-1.268s1.199-1.951,1.199-3.32c0-1.341-0.399-2.426-1.199-3.257
		S562.928,532.143,561.704,532.143z"/>
</g>
</svg>
